<?xml version="1.0" encoding="UTF-8"?>
<svg width="1000" height="342" viewBox="0 0 1000 342"
     xmlns="http://www.w3.org/2000/svg" role="img">
<style>text{font-family:'Inter','Segoe UI',sans-serif;}</style>
  <rect width="1000" height="342" fill="#fff" />
  <text x="500.0" y="40" font-size="28" text-anchor="middle" fill="#111">Local vs Cloud: Word Accuracy & Punctuation</text>
  <rect x="180" y="50" width="18" height="18" rx="3" fill="#2E7D32" />
  <text x="204" y="64" font-size="16" fill="#222">Local</text>
  <rect x="300" y="50" width="18" height="18" rx="3" fill="#1976D2" />
  <text x="324" y="64" font-size="16" fill="#222">Cloud</text>
  <line x1="180" y1="262" x2="940" y2="262" stroke="#ccc" stroke-width="2" />
  <line x1="180.0" y1="262" x2="180.0" y2="270" stroke="#999" stroke-width="2" />
  <text x="180.0" y="290" font-size="16" text-anchor="middle" fill="#444">0%</text>
  <line x1="358.8235294117647" y1="262" x2="358.8235294117647" y2="270" stroke="#999" stroke-width="2" />
  <text x="358.8235294117647" y="290" font-size="16" text-anchor="middle" fill="#444">20%</text>
  <line x1="537.6470588235294" y1="262" x2="537.6470588235294" y2="270" stroke="#999" stroke-width="2" />
  <text x="537.6470588235294" y="290" font-size="16" text-anchor="middle" fill="#444">40%</text>
  <line x1="716.4705882352941" y1="262" x2="716.4705882352941" y2="270" stroke="#999" stroke-width="2" />
  <text x="716.4705882352941" y="290" font-size="16" text-anchor="middle" fill="#444">60%</text>
  <line x1="895.2941176470588" y1="262" x2="895.2941176470588" y2="270" stroke="#999" stroke-width="2" />
  <text x="895.2941176470588" y="290" font-size="16" text-anchor="middle" fill="#444">80%</text>
  <rect x="180" y="80" width="722.6258823529412" height="32" rx="5" fill="#2E7D32" />
  <text x="160" y="101.0" font-size="18" text-anchor="end" fill="#111">Local Avg Word</text>
  <text x="914.6258823529412" y="102.0" font-size="18" fill="#111">80.82%</text>
  <rect x="180" y="130" width="716.1882352941176" height="32" rx="5" fill="#1976D2" />
  <text x="160" y="151.0" font-size="18" text-anchor="end" fill="#111">Cloud Avg Word</text>
  <text x="908.1882352941176" y="152.0" font-size="18" fill="#111">80.10%</text>
  <rect x="180" y="180" width="186.51294117647058" height="32" rx="5" fill="#2E7D32" />
  <text x="160" y="201.0" font-size="18" text-anchor="end" fill="#111">Local Avg Punctuation</text>
  <text x="378.5129411764706" y="202.0" font-size="18" fill="#111">20.86%</text>
  <rect x="180" y="230" width="404.8564705882353" height="32" rx="5" fill="#1976D2" />
  <text x="160" y="251.0" font-size="18" text-anchor="end" fill="#111">Cloud Avg Punctuation</text>
  <text x="596.8564705882353" y="252.0" font-size="18" fill="#111">45.28%</text>
  <text x="500.0" y="322" font-size="18" text-anchor="middle" fill="#333">Accuracy (%)</text>
</svg>