<?xml version="1.0" encoding="UTF-8"?>
<svg width="1000" height="492" viewBox="0 0 1000 492"
     xmlns="http://www.w3.org/2000/svg" role="img">
<style>text{font-family:'Inter','Segoe UI',sans-serif;}</style>
  <rect width="1000" height="492" fill="#fff" />
  <text x="500.0" y="40" font-size="28" text-anchor="middle" fill="#111">Punctuation Accuracy Comparison</text>
  <rect x="180" y="50" width="18" height="18" rx="3" fill="#2E7D32" />
  <text x="204" y="64" font-size="16" fill="#222">Local</text>
  <rect x="300" y="50" width="18" height="18" rx="3" fill="#1976D2" />
  <text x="324" y="64" font-size="16" fill="#222">Cloud</text>
  <line x1="180" y1="412" x2="940" y2="412" stroke="#ccc" stroke-width="2" />
  <line x1="180.0" y1="412" x2="180.0" y2="420" stroke="#999" stroke-width="2" />
  <text x="180.0" y="440" font-size="16" text-anchor="middle" fill="#444">0%</text>
  <line x1="318.1818181818182" y1="412" x2="318.1818181818182" y2="420" stroke="#999" stroke-width="2" />
  <text x="318.1818181818182" y="440" font-size="16" text-anchor="middle" fill="#444">10%</text>
  <line x1="456.3636363636364" y1="412" x2="456.3636363636364" y2="420" stroke="#999" stroke-width="2" />
  <text x="456.3636363636364" y="440" font-size="16" text-anchor="middle" fill="#444">20%</text>
  <line x1="594.5454545454545" y1="412" x2="594.5454545454545" y2="420" stroke="#999" stroke-width="2" />
  <text x="594.5454545454545" y="440" font-size="16" text-anchor="middle" fill="#444">30%</text>
  <line x1="732.7272727272727" y1="412" x2="732.7272727272727" y2="420" stroke="#999" stroke-width="2" />
  <text x="732.7272727272727" y="440" font-size="16" text-anchor="middle" fill="#444">40%</text>
  <line x1="870.9090909090909" y1="412" x2="870.9090909090909" y2="420" stroke="#999" stroke-width="2" />
  <text x="870.9090909090909" y="440" font-size="16" text-anchor="middle" fill="#444">50%</text>
  <rect x="180" y="80" width="707.0763636363637" height="32" rx="5" fill="#1976D2" />
  <text x="160" y="101.0" font-size="18" text-anchor="end" fill="#111">Deepgram Nova-3</text>
  <text x="899.0763636363637" y="102.0" font-size="18" fill="#111">51.17%</text>
  <rect x="180" y="130" width="669.2145454545455" height="32" rx="5" fill="#1976D2" />
  <text x="160" y="151.0" font-size="18" text-anchor="end" fill="#111">AssemblyAI</text>
  <text x="861.2145454545455" y="152.0" font-size="18" fill="#111">48.43%</text>
  <rect x="180" y="180" width="614.0799999999999" height="32" rx="5" fill="#1976D2" />
  <text x="160" y="201.0" font-size="18" text-anchor="end" fill="#111">OpenAI Whisper-1</text>
  <text x="806.0799999999999" y="202.0" font-size="18" fill="#111">44.44%</text>
  <rect x="180" y="230" width="609.7963636363637" height="32" rx="5" fill="#1976D2" />
  <text x="160" y="251.0" font-size="18" text-anchor="end" fill="#111">Gladia Solaria-1</text>
  <text x="801.7963636363637" y="252.0" font-size="18" fill="#111">44.13%</text>
  <rect x="180" y="280" width="528.2690909090909" height="32" rx="5" fill="#1976D2" />
  <text x="160" y="301.0" font-size="18" text-anchor="end" fill="#111">Speechmatics SLAM-1</text>
  <text x="720.2690909090909" y="302.0" font-size="18" fill="#111">38.23%</text>
  <rect x="180" y="330" width="302.6181818181818" height="32" rx="5" fill="#2E7D32" />
  <text x="160" y="351.0" font-size="18" text-anchor="end" fill="#111">Whisper-Base</text>
  <text x="494.6181818181818" y="352.0" font-size="18" fill="#111">21.90%</text>
  <rect x="180" y="380" width="259.50545454545454" height="32" rx="5" fill="#2E7D32" />
  <text x="160" y="401.0" font-size="18" text-anchor="end" fill="#111">Whisper-Tiny</text>
  <text x="451.50545454545454" y="402.0" font-size="18" fill="#111">18.78%</text>
  <text x="500.0" y="472" font-size="18" text-anchor="middle" fill="#333">Punctuation Accuracy (%)</text>
</svg>