<?xml version="1.0" encoding="UTF-8"?>
<svg width="1000" height="542" viewBox="0 0 1000 542"
     xmlns="http://www.w3.org/2000/svg" role="img">
<style>text{font-family:'Inter','Segoe UI',sans-serif;}</style>
  <rect width="1000" height="542" fill="#fff" />
  <text x="500.0" y="40" font-size="28" text-anchor="middle" fill="#111">Word Error Rate (Lower is Better)</text>
  <rect x="180" y="50" width="18" height="18" rx="3" fill="#2E7D32" />
  <text x="204" y="64" font-size="16" fill="#222">Local</text>
  <rect x="300" y="50" width="18" height="18" rx="3" fill="#1976D2" />
  <text x="324" y="64" font-size="16" fill="#222">Cloud</text>
  <line x1="180" y1="462" x2="940" y2="462" stroke="#ccc" stroke-width="2" />
  <line x1="180.0" y1="462" x2="180.0" y2="470" stroke="#999" stroke-width="2" />
  <text x="180.0" y="490" font-size="16" text-anchor="middle" fill="#444">15%</text>
  <line x1="332.0" y1="462" x2="332.0" y2="470" stroke="#999" stroke-width="2" />
  <text x="332.0" y="490" font-size="16" text-anchor="middle" fill="#444">17%</text>
  <line x1="484.0" y1="462" x2="484.0" y2="470" stroke="#999" stroke-width="2" />
  <text x="484.0" y="490" font-size="16" text-anchor="middle" fill="#444">19%</text>
  <line x1="636.0" y1="462" x2="636.0" y2="470" stroke="#999" stroke-width="2" />
  <text x="636.0" y="490" font-size="16" text-anchor="middle" fill="#444">21%</text>
  <line x1="788.0" y1="462" x2="788.0" y2="470" stroke="#999" stroke-width="2" />
  <text x="788.0" y="490" font-size="16" text-anchor="middle" fill="#444">23%</text>
  <line x1="940.0" y1="462" x2="940.0" y2="470" stroke="#999" stroke-width="2" />
  <text x="940.0" y="490" font-size="16" text-anchor="middle" fill="#444">25%</text>
  <rect x="180" y="80" width="191.51999999999998" height="32" rx="5" fill="#2E7D32" />
  <text x="160" y="101.0" font-size="18" text-anchor="end" fill="#111">Whisper-Base</text>
  <text x="383.52" y="102.0" font-size="18" fill="#111">17.52%</text>
  <rect x="180" y="130" width="191.51999999999998" height="32" rx="5" fill="#2E7D32" />
  <text x="160" y="151.0" font-size="18" text-anchor="end" fill="#111">Whisper-Base*</text>
  <text x="383.52" y="152.0" font-size="18" fill="#111">17.52%</text>
  <rect x="180" y="180" width="282.7199999999999" height="32" rx="5" fill="#1976D2" />
  <text x="160" y="201.0" font-size="18" text-anchor="end" fill="#111">Deepgram Nova-3</text>
  <text x="474.7199999999999" y="202.0" font-size="18" fill="#111">18.72%</text>
  <rect x="180" y="230" width="288.03999999999996" height="32" rx="5" fill="#1976D2" />
  <text x="160" y="251.0" font-size="18" text-anchor="end" fill="#111">AssemblyAI</text>
  <text x="480.03999999999996" y="252.0" font-size="18" fill="#111">18.79%</text>
  <rect x="180" y="280" width="324.52" height="32" rx="5" fill="#1976D2" />
  <text x="160" y="301.0" font-size="18" text-anchor="end" fill="#111">OpenAI Whisper-1</text>
  <text x="516.52" y="302.0" font-size="18" fill="#111">19.27%</text>
  <rect x="180" y="330" width="443.07999999999987" height="32" rx="5" fill="#1976D2" />
  <text x="160" y="351.0" font-size="18" text-anchor="end" fill="#111">Gladia Solaria-1</text>
  <text x="635.0799999999999" y="352.0" font-size="18" fill="#111">20.83%</text>
  <rect x="180" y="380" width="505.39999999999986" height="32" rx="5" fill="#1976D2" />
  <text x="160" y="401.0" font-size="18" text-anchor="end" fill="#111">Speechmatics SLAM-1</text>
  <text x="697.3999999999999" y="402.0" font-size="18" fill="#111">21.65%</text>
  <rect x="180" y="430" width="569.2399999999999" height="32" rx="5" fill="#2E7D32" />
  <text x="160" y="451.0" font-size="18" text-anchor="end" fill="#111">Whisper-Tiny</text>
  <text x="761.2399999999999" y="452.0" font-size="18" fill="#111">22.49%</text>
  <text x="500.0" y="522" font-size="18" text-anchor="middle" fill="#333">Word Error Rate (%)</text>
</svg>