<?xml version="1.0" encoding="UTF-8"?>
<svg width="1000" height="542" viewBox="0 0 1000 542"
     xmlns="http://www.w3.org/2000/svg" role="img">
<style>text{font-family:'Inter','Segoe UI',sans-serif;}</style>
  <rect width="1000" height="542" fill="#fff" />
  <text x="500.0" y="40" font-size="28" text-anchor="middle" fill="#111">Word Accuracy Comparison</text>
  <rect x="180" y="50" width="18" height="18" rx="3" fill="#2E7D32" />
  <text x="204" y="64" font-size="16" fill="#222">Local</text>
  <rect x="300" y="50" width="18" height="18" rx="3" fill="#1976D2" />
  <text x="324" y="64" font-size="16" fill="#222">Cloud</text>
  <line x1="180" y1="462" x2="940" y2="462" stroke="#ccc" stroke-width="2" />
  <line x1="180.0" y1="462" x2="180.0" y2="470" stroke="#999" stroke-width="2" />
  <text x="180.0" y="490" font-size="16" text-anchor="middle" fill="#444">75%</text>
  <line x1="370.0" y1="462" x2="370.0" y2="470" stroke="#999" stroke-width="2" />
  <text x="370.0" y="490" font-size="16" text-anchor="middle" fill="#444">77.5%</text>
  <line x1="560.0" y1="462" x2="560.0" y2="470" stroke="#999" stroke-width="2" />
  <text x="560.0" y="490" font-size="16" text-anchor="middle" fill="#444">80%</text>
  <line x1="750.0" y1="462" x2="750.0" y2="470" stroke="#999" stroke-width="2" />
  <text x="750.0" y="490" font-size="16" text-anchor="middle" fill="#444">82.5%</text>
  <line x1="940.0" y1="462" x2="940.0" y2="470" stroke="#999" stroke-width="2" />
  <text x="940.0" y="490" font-size="16" text-anchor="middle" fill="#444">85%</text>
  <rect x="180" y="80" width="568.4800000000002" height="32" rx="5" fill="#2E7D32" />
  <text x="160" y="101.0" font-size="18" text-anchor="end" fill="#111">Whisper-Base</text>
  <text x="760.4800000000002" y="102.0" font-size="18" fill="#111">82.48%</text>
  <rect x="180" y="130" width="568.4800000000002" height="32" rx="5" fill="#2E7D32" />
  <text x="160" y="151.0" font-size="18" text-anchor="end" fill="#111">Whisper-Base*</text>
  <text x="760.4800000000002" y="152.0" font-size="18" fill="#111">82.48%</text>
  <rect x="180" y="180" width="477.2800000000001" height="32" rx="5" fill="#1976D2" />
  <text x="160" y="201.0" font-size="18" text-anchor="end" fill="#111">Deepgram Nova-3</text>
  <text x="669.2800000000001" y="202.0" font-size="18" fill="#111">81.28%</text>
  <rect x="180" y="230" width="471.9599999999995" height="32" rx="5" fill="#1976D2" />
  <text x="160" y="251.0" font-size="18" text-anchor="end" fill="#111">AssemblyAI</text>
  <text x="663.9599999999996" y="252.0" font-size="18" fill="#111">81.21%</text>
  <rect x="180" y="280" width="435.4800000000003" height="32" rx="5" fill="#1976D2" />
  <text x="160" y="301.0" font-size="18" text-anchor="end" fill="#111">OpenAI Whisper-1</text>
  <text x="627.4800000000002" y="302.0" font-size="18" fill="#111">80.73%</text>
  <rect x="180" y="330" width="316.92000000000013" height="32" rx="5" fill="#1976D2" />
  <text x="160" y="351.0" font-size="18" text-anchor="end" fill="#111">Gladia Solaria-1</text>
  <text x="508.92000000000013" y="352.0" font-size="18" fill="#111">79.17%</text>
  <rect x="180" y="380" width="254.59999999999957" height="32" rx="5" fill="#1976D2" />
  <text x="160" y="401.0" font-size="18" text-anchor="end" fill="#111">Speechmatics SLAM-1</text>
  <text x="446.59999999999957" y="402.0" font-size="18" fill="#111">78.35%</text>
  <rect x="180" y="430" width="190.7600000000004" height="32" rx="5" fill="#2E7D32" />
  <text x="160" y="451.0" font-size="18" text-anchor="end" fill="#111">Whisper-Tiny</text>
  <text x="382.7600000000004" y="452.0" font-size="18" fill="#111">77.51%</text>
  <text x="500.0" y="522" font-size="18" text-anchor="middle" fill="#333">Word Accuracy (%)</text>
</svg>